<svg xmlns="http://www.w3.org/2000/svg" viewBox="0 0 512 512">
  <path fill="#ff1493" d="M256 344.7a7.5 7.5 0 00-7.5 7.5v8a7.5 7.5 0 0015 0v-8c0-4.1-3.4-7.5-7.5-7.5z"/>
  <path fill="#429bb8" d="M479.8 283.9a46.3 46.3 0 00-15-30c7.6-28.3 9-61 3.7-88.5-6.4-32.9-21.3-54.5-42-60.9a53 53 0 00-11-2.2l.3-6.6A63.7 63.7 0 00341.4 33 47.7 47.7 0 00256 22a47.6 47.6 0 00-85.4 11 63.7 63.7 0 00-74 69.3 54 54 0 00-11.2 2.2c-20.6 6.4-35.5 28-41.9 61-5.3 27.3-4 59.8 3.6 88a47.4 47.4 0 006.6 74.4 55.7 55.7 0 0034.6 77.6l-.1 2.8a71.7 71.7 0 0089.2 69.4 43.6 43.6 0 0078.6 15.1 43.6 43.6 0 0078.6-15 71.5 71.5 0 0089.2-72.2 56.3 56.3 0 0039.6-46 56 56 0 00-5-31.7 47.6 47.6 0 0021.4-44zM445 318a7.5 7.5 0 00-3.2 11.1 40.8 40.8 0 01-27.8 63.2c-8 1-15.7 0-22.7-3.3 1.7-3.6 3-7.4 3.8-11.4a7.5 7.5 0 10-14.7-3 32.6 32.6 0 01-55 16.5 7.5 7.5 0 10-10.6 10.7 47.4 47.4 0 0067.3 0l.4-.4c8 4.1 16.9 6.3 25.9 6.3h.4v.5a56.7 56.7 0 01-99 37.5 7.5 7.5 0 10-11.3 9.9c6.2 7 13.6 12.7 21.9 16.7a28.6 28.6 0 01-56.9-4v-76.1a7.5 7.5 0 00-15 0v10.1a55.4 55.4 0 00-40.6-17.6h-.5v-8.6c0-18.9-11.2-36-28.6-43.6a7.5 7.5 0 00-6 13.8 32.6 32.6 0 0119.6 29.8V387a55.5 55.5 0 00-30.8 22.6A7.5 7.5 0 00174 418a40.6 40.6 0 0174.4 22.5v28a28.6 28.6 0 01-56.9 4c8.3-4 15.7-9.7 22-16.7a7.5 7.5 0 10-11.3-10 56.7 56.7 0 01-99.1-37.4v-.5h.5c11 0 21.6-3.2 30.7-9.3a7.5 7.5 0 10-8.3-12.5 40.6 40.6 0 01-56-56.8 7.5 7.5 0 00-3.1-11.1 32.5 32.5 0 0112.6-62.6 7.5 7.5 0 000-15c-6.8 0-13.4 1.5-19.3 4.1a187.8 187.8 0 01-2-76.3c5.2-26.8 16.7-44.8 31.6-49.4 9.4-3 17.3-2.2 24 2.2 13.7 9 19.4 30.7 21.4 41.4a63.3 63.3 0 00-28 16 7.5 7.5 0 1010.5 10.7 48.3 48.3 0 0171.7 4c-3.2 4.1-5.1 9.2-5.1 14.7v.5h-24.6a7.5 7.5 0 000 15h24.6v25.1H150a23.6 23.6 0 100 15h34.4v25h-24.6a7.5 7.5 0 000 15h24.6v.6c0 13 10.5 23.5 23.5 23.5h96.2c13 0 23.5-10.5 23.5-23.5v-.5h24.6a7.5 7.5 0 000-15h-24.6v-25.1H362a23.6 23.6 0 100-15h-34.4v-25h24.6a7.5 7.5 0 000-15h-24.6v-.6c0-13-10.5-23.5-23.5-23.5h-96.2c-2 0-3.9.2-5.7.7a63.6 63.6 0 00-50.4-24.8h-1.6c-2.3-12.5-9.3-39.4-28-51.7a39 39 0 00-10.1-4.8 48.7 48.7 0 0182.5-42.1 7.5 7.5 0 1010.7-10.5 63.5 63.5 0 00-20.3-14 32.6 32.6 0 0163.5 10.4v28a36.6 36.6 0 01-66.5 21 7.5 7.5 0 00-12.3 8.7 51.7 51.7 0 0078.8 6.7v47.8a7.5 7.5 0 0015 0V47.6A32.6 32.6 0 01327 37.3c-7.1 3-13.6 7.4-19.3 13A7.5 7.5 0 00318.2 61a48.7 48.7 0 0182 42.8 39.9 39.9 0 00-15.4 8.7 7.5 7.5 0 1010 11.2c7.4-6.7 16.3-8.2 27.3-4.8 14.9 4.6 26.4 22.6 31.7 49.4 4.6 23.8 3.7 51.8-2.2 76.7-6.4-2.9-13.6-4.5-21-4.5a7.5 7.5 0 000 15c17.7 0 32.8 13 34.2 29.6a32.6 32.6 0 01-19.8 33zM136.3 256a8.5 8.5 0 11-17.1 0 8.5 8.5 0 0117 0zm63 48.1v-96.2c0-4.7 3.9-8.5 8.6-8.5h96.2c4.7 0 8.5 3.8 8.5 8.5v96.2c0 4.7-3.8 8.5-8.5 8.5h-96.2a8.5 8.5 0 01-8.5-8.5zM375.8 256a8.5 8.5 0 1117.1 0 8.5 8.5 0 01-17 0z"/>
  <path fill="#ff1493" d="M300.5 72.5c-4-1.2-8.1 1-9.3 5-1.7 5.9-2.6 12-2.6 18.2a7.5 7.5 0 0015 0c0-4.8.7-9.4 2-14 1.2-3.9-1-8-5-9.2zM288 216.4h-64a7.5 7.5 0 00-7.6 7.5v64.2c0 4.1 3.4 7.5 7.5 7.5h64.2c4.1 0 7.5-3.4 7.5-7.5v-64.2c0-4.1-3.4-7.5-7.5-7.5zm-7.4 64.2h-49.2v-49.2h49.2v49.2z"/>
</svg>